<?xml version="1.0" standalone="no"?>
<!DOCTYPE svg PUBLIC "-//W3C//DTD SVG 20010904//EN"
 "http://www.w3.org/TR/2001/REC-SVG-20010904/DTD/svg10.dtd">
<svg version="1.0" xmlns="http://www.w3.org/2000/svg"
 width="951.000000pt" height="1024.000000pt" viewBox="0 0 951.000000 1024.000000"
 preserveAspectRatio="xMidYMid meet">

<g transform="translate(0.000000,1024.000000) scale(0.100000,-0.100000)"
fill="#000000" stroke="none">
<path d="M4650 9688 c-32 -29 -461 -434 -660 -622 -46 -45 -125 -119 -175
-166 -49 -47 -128 -122 -175 -166 -47 -44 -125 -119 -175 -165 -49 -46 -135
-127 -190 -181 -55 -53 -119 -113 -142 -133 l-43 -37 0 -105 0 -105 24 19 c13
10 135 117 271 238 137 121 274 243 305 270 100 87 373 328 415 366 22 20 166
148 319 283 l279 247 41 -39 c23 -22 331 -304 686 -628 355 -323 647 -591 650
-594 42 -44 222 -201 227 -197 3 4 8 52 11 108 l5 102 -34 29 c-19 16 -74 68
-124 116 -99 95 -230 220 -400 381 -61 58 -150 143 -200 190 -49 48 -184 176
-300 286 -350 333 -387 368 -476 453 -47 45 -90 82 -95 82 -5 0 -25 -14 -44
-32z"/>
<path d="M4585 9258 c-149 -138 -183 -169 -870 -797 -308 -282 -576 -530 -596
-550 l-37 -38 -1 -108 c-2 -104 -1 -108 16 -93 10 8 110 95 223 193 113 97
230 198 260 224 158 137 1033 893 1081 934 31 26 59 47 63 47 4 0 105 -85 224
-189 119 -104 325 -283 457 -397 265 -230 464 -403 724 -629 94 -82 176 -151
181 -153 8 -3 4 128 -6 175 -2 12 -238 239 -566 545 -310 288 -665 619 -791
736 -125 116 -231 212 -235 212 -4 -1 -61 -51 -127 -112z"/>
<path d="M4450 8769 c-210 -181 -385 -330 -771 -659 -42 -36 -194 -166 -339
-289 l-262 -225 6 -50 c3 -28 6 -72 6 -98 0 -27 4 -48 8 -48 4 0 67 48 139
108 192 158 889 734 1188 982 143 119 265 219 272 223 7 5 96 -59 225 -161
117 -92 438 -345 713 -562 275 -217 541 -427 592 -467 l91 -73 8 77 c7 77 7
77 -23 103 -31 26 -413 348 -486 410 -23 19 -175 148 -337 285 -162 138 -380
322 -485 410 -104 87 -212 178 -240 202 -27 24 -52 43 -55 42 -3 0 -115 -95
-250 -210z"/>
<path d="M4595 8477 c-44 -35 -205 -161 -357 -280 -623 -486 -841 -657 -992
-776 l-159 -125 6 -69 c3 -38 8 -71 11 -74 2 -2 60 38 128 89 67 52 326 247
573 433 248 186 541 408 653 492 111 85 209 156 217 159 8 3 56 -25 113 -68
55 -40 170 -125 257 -188 86 -63 239 -176 340 -250 176 -130 259 -191 699
-512 110 -82 204 -148 209 -148 4 0 7 35 7 78 l0 78 -67 51 c-38 28 -174 131
-303 228 -129 98 -372 282 -540 408 -287 217 -355 268 -606 460 -56 42 -103
77 -105 77 -2 0 -40 -29 -84 -63z"/>
<path d="M4650 8141 c-315 -222 -1543 -1101 -1557 -1114 -14 -14 -5 -157 10
-157 5 0 30 15 56 34 25 18 107 75 181 126 74 51 176 121 225 155 120 83 795
550 964 667 74 51 138 95 143 96 4 2 158 -94 341 -214 182 -120 424 -278 537
-352 113 -74 268 -176 345 -226 77 -50 198 -130 270 -177 l130 -86 7 61 c4 33
4 64 0 67 -4 4 -189 134 -412 289 -223 156 -448 313 -500 350 -83 58 -414 289
-640 446 -75 51 -76 52 -100 35z"/>
<path d="M4485 7645 c-241 -160 -1042 -688 -1248 -823 l-148 -97 5 -69 c3 -37
7 -71 10 -74 7 -6 -111 -79 1336 831 140 88 259 160 265 160 5 0 161 -91 345
-203 184 -112 400 -242 480 -290 80 -48 284 -171 453 -274 196 -119 309 -182
312 -174 2 7 6 31 7 52 3 36 -1 42 -37 67 -42 29 -1001 664 -1353 896 -111 73
-208 133 -215 132 -6 0 -102 -60 -212 -134z"/>
<path d="M4650 6221 c-14 -8 -31 -15 -130 -59 -25 -11 -121 -52 -215 -92 -93
-39 -183 -77 -200 -85 -123 -54 -175 -75 -185 -75 -6 0 -8 -5 -4 -12 4 -6 3
-8 -3 -5 -8 5 -402 -157 -528 -217 -16 -8 -86 -38 -155 -66 -69 -29 -150 -64
-180 -78 -30 -13 -73 -31 -94 -38 -22 -8 -44 -18 -50 -22 -6 -5 -33 -17 -61
-27 -27 -10 -84 -33 -125 -52 -41 -19 -102 -46 -135 -59 -33 -14 -82 -36 -110
-48 -27 -13 -61 -27 -75 -31 -14 -4 -53 -21 -88 -36 -34 -16 -67 -29 -73 -29
-6 0 -7 -5 -3 -12 4 -6 3 -8 -3 -5 -9 6 -177 -62 -321 -128 -29 -14 -55 -25
-57 -25 -2 0 -29 -11 -59 -25 -30 -14 -57 -25 -61 -25 -3 0 -42 -16 -86 -37
-57 -26 -78 -40 -74 -50 3 -8 5 -27 5 -43 0 -27 2 -28 28 -20 15 4 59 22 97
40 39 18 93 40 121 50 27 10 84 32 125 49 41 18 84 36 97 42 12 5 32 13 45 19
12 5 67 28 122 50 55 23 123 50 150 62 28 11 59 24 70 28 11 5 36 15 55 23 19
8 98 41 175 72 295 121 355 147 351 153 -2 4 8 8 22 8 22 1 366 139 497 198
17 8 82 35 145 60 63 26 124 51 135 55 73 33 114 50 145 61 46 18 264 107 315
130 77 35 370 152 391 157 17 4 269 -90 419 -157 22 -10 110 -45 195 -79 85
-34 164 -66 175 -71 29 -14 260 -108 325 -131 30 -12 69 -27 85 -34 17 -7 127
-52 245 -100 118 -47 229 -92 245 -99 93 -42 188 -75 198 -69 7 3 9 2 4 -2 -7
-8 72 -44 208 -95 28 -10 106 -42 175 -70 69 -29 168 -69 220 -90 236 -93 509
-204 555 -224 125 -56 130 -56 137 -3 3 28 -1 30 -122 82 -69 29 -141 60 -160
68 -202 90 -374 158 -385 153 -8 -3 -14 0 -12 6 1 6 -29 23 -68 39 -38 16 -79
33 -90 39 -11 5 -101 43 -200 86 -99 42 -205 88 -235 101 -30 14 -67 26 -82
27 -14 0 -24 4 -22 7 4 7 -62 37 -516 229 -146 61 -300 128 -343 147 -43 19
-85 32 -93 29 -8 -3 -13 -2 -10 3 6 8 -57 39 -163 81 -30 11 -73 29 -95 40
-23 10 -68 29 -101 43 -77 32 -207 89 -265 115 -79 35 -201 82 -213 81 -7 0
-19 -4 -27 -8z"/>
<path d="M4535 5379 c-71 -22 -164 -51 -205 -63 -71 -23 -169 -53 -380 -116
-52 -16 -167 -51 -255 -79 -88 -27 -214 -66 -280 -86 -368 -112 -342 -101
-340 -135 1 -16 4 -32 6 -35 3 -3 29 2 57 10 29 9 53 15 54 14 2 0 21 6 43 14
22 9 92 31 155 51 63 19 225 68 360 109 135 41 315 96 400 122 85 25 169 51
185 56 79 27 292 89 321 95 32 6 117 -13 279 -61 44 -13 197 -56 340 -95 143
-40 289 -80 324 -91 52 -14 68 -16 80 -6 10 8 12 8 8 1 -8 -14 47 -39 62 -29
6 3 11 2 11 -3 0 -5 46 -21 103 -36 56 -15 163 -45 237 -66 195 -54 187 -53
193 -30 3 11 1 22 -3 25 -8 5 -77 25 -290 86 -41 12 -93 28 -115 35 -22 7 -56
17 -75 23 -19 5 -190 55 -380 111 -457 134 -754 220 -760 219 -3 0 -63 -18
-135 -40z"/>
<path d="M4355 4949 c-181 -44 -337 -82 -345 -86 -8 -3 -18 -5 -23 -5 -4 1
-94 -19 -200 -44 -105 -25 -248 -59 -317 -74 -69 -16 -183 -43 -255 -59 -71
-17 -133 -31 -137 -31 -5 0 -8 -18 -8 -41 0 -34 3 -40 18 -36 32 9 186 46 282
68 52 11 167 38 255 59 88 22 221 53 295 70 202 47 242 56 400 94 80 19 198
46 262 61 l117 28 98 -22 c54 -12 136 -31 183 -42 413 -94 648 -147 1140 -256
180 -40 170 -39 170 -10 0 21 -6 27 -32 32 -18 4 -98 23 -178 42 -80 19 -203
48 -275 65 -71 16 -164 38 -205 48 -41 10 -145 34 -230 55 -85 20 -162 38
-170 40 -8 2 -89 21 -180 44 -91 22 -196 47 -235 56 -38 8 -77 17 -85 19 -8 2
-163 -32 -345 -75z"/>
<path d="M4655 4644 c-33 -8 -124 -25 -202 -39 -78 -13 -262 -47 -410 -75
-147 -27 -293 -54 -323 -60 -30 -5 -100 -19 -155 -30 -55 -10 -140 -27 -190
-36 -160 -29 -240 -44 -255 -48 -8 -3 -23 -5 -32 -5 -18 -1 -27 -41 -10 -41 5
0 116 18 248 41 131 22 265 44 297 50 31 5 83 13 115 18 155 26 252 42 297 51
28 5 193 33 368 62 l319 53 281 -48 c155 -26 386 -65 512 -87 127 -23 282 -49
345 -60 314 -52 427 -71 443 -76 13 -4 17 1 17 23 l0 28 -158 28 c-181 32
-202 36 -417 77 -88 16 -200 37 -250 45 -102 17 -335 60 -410 75 -27 5 -102
19 -165 30 -63 12 -134 25 -157 30 -23 6 -43 9 -45 9 -2 -1 -30 -8 -63 -15z"/>
<path d="M4475 4230 c-88 -10 -209 -24 -270 -30 -60 -6 -150 -15 -200 -20 -49
-6 -180 -19 -290 -30 -110 -11 -240 -25 -290 -30 -49 -5 -145 -15 -212 -22
l-123 -12 0 -33 c0 -30 2 -32 28 -28 15 2 56 7 92 10 36 3 198 19 360 36 162
16 338 34 390 39 52 5 190 18 305 30 489 48 397 47 790 10 55 -5 154 -14 220
-20 66 -6 210 -19 320 -30 110 -11 277 -27 370 -35 94 -9 204 -20 245 -24 41
-5 76 -7 78 -6 3 3 12 45 9 45 -6 0 -576 60 -607 64 -19 3 -84 10 -145 16 -60
6 -144 15 -185 20 -41 5 -122 14 -180 20 -58 5 -168 17 -245 26 -206 24 -283
24 -460 4z"/>
<path d="M2015 3830 c-884 -4 -1108 -8 -1140 -19 -151 -51 -291 -165 -350
-285 -46 -95 -55 -161 -55 -416 0 -244 11 -317 61 -410 42 -80 161 -193 243
-231 141 -65 102 -63 976 -69 l794 -5 13 -25 c18 -35 14 -333 -5 -352 -10 -10
-216 -14 -1047 -16 l-1035 -2 0 -255 0 -255 1095 0 c750 0 1111 3 1147 11 29
6 91 29 137 51 153 73 273 221 300 372 14 77 14 485 0 562 -38 207 -227 380
-463 423 -40 7 -318 11 -823 11 -758 0 -763 0 -784 21 -19 19 -20 30 -17 181
3 154 4 160 27 179 22 18 54 19 1047 19 l1024 0 0 259 0 260 -22 -2 c-13 -1
-518 -4 -1123 -7z"/>
<path d="M6354 3831 c-2 -2 -4 -530 -4 -1173 l0 -1168 1053 2 1052 3 65 23
c262 94 417 325 484 718 50 288 39 741 -24 1001 -63 261 -187 440 -364 527
-141 69 -99 66 -1234 69 -563 1 -1026 0 -1028 -2z m1953 -537 c15 -11 40 -45
55 -75 44 -87 60 -205 65 -475 11 -497 -44 -720 -180 -739 -23 -3 -325 -5
-672 -3 l-630 3 -3 645 c-1 355 0 651 3 658 4 10 139 12 669 10 657 -3 665 -3
693 -24z"/>
<path d="M3828 3814 c-176 -42 -342 -186 -404 -349 -18 -47 -19 -92 -22 -760
-2 -445 1 -734 7 -775 30 -194 211 -375 423 -425 53 -12 199 -15 912 -15 833
0 851 0 928 21 158 43 309 165 370 299 43 96 43 95 43 610 l0 495 -595 0 -595
0 0 -255 0 -255 300 -5 300 -5 -1 -183 c-1 -124 -6 -188 -13 -195 -9 -9 -198
-13 -709 -15 -383 -2 -711 0 -728 3 -20 3 -35 14 -42 31 -9 18 -12 195 -12
633 0 509 2 610 14 627 14 19 39 19 1048 24 l1033 5 3 253 2 252 -1102 -1
c-903 -1 -1113 -3 -1160 -15z"/>
<path d="M6706 974 c-57 -21 -102 -58 -133 -112 -23 -39 -28 -58 -28 -122 0
-64 4 -82 27 -121 36 -62 78 -95 140 -114 136 -40 264 10 322 127 68 135 -4
300 -148 343 -61 18 -129 18 -180 -1z m153 -89 c16 -8 41 -29 56 -47 25 -29
27 -37 23 -104 -3 -65 -7 -77 -33 -104 -105 -110 -275 -12 -247 142 11 56 32
87 75 110 40 21 89 23 126 3z"/>
<path d="M8775 975 c-62 -22 -95 -65 -95 -124 0 -65 30 -100 118 -141 122 -57
117 -54 117 -85 0 -59 -77 -68 -182 -20 l-51 23 3 -44 c3 -52 19 -67 82 -83
58 -15 112 -14 165 5 78 26 116 90 96 161 -14 54 -33 71 -118 110 -116 53
-119 55 -125 73 -9 29 6 49 41 56 38 7 112 -2 129 -15 5 -5 20 -12 33 -15 20
-7 22 -4 22 37 l0 44 -60 16 c-72 20 -122 21 -175 2z"/>
<path d="M4060 739 l0 -241 148 4 c127 3 153 7 188 26 92 47 144 149 129 250
-9 63 -26 92 -80 140 -58 51 -104 62 -259 62 l-126 0 0 -241z m279 138 c95
-45 96 -223 2 -272 -19 -9 -56 -15 -101 -15 l-70 0 0 148 c0 82 3 151 6 155 9
9 136 -3 163 -16z"/>
<path d="M4670 740 l0 -240 160 0 160 0 0 40 0 40 -105 0 -105 0 0 65 0 65
100 0 100 0 0 34 c0 42 -9 46 -116 46 l-85 0 3 56 3 57 98 -2 97 -2 0 40 0 41
-155 0 -155 0 0 -240z"/>
<path d="M5146 833 c36 -82 84 -190 106 -241 52 -120 70 -128 110 -50 24 46
155 322 184 386 l24 52 -59 0 -58 0 -61 -137 c-34 -76 -65 -139 -69 -140 -5
-2 -35 60 -67 137 l-59 140 -58 0 -58 0 65 -147z"/>
<path d="M5680 740 l0 -240 160 0 160 0 0 40 0 40 -105 0 -105 0 0 65 0 65 95
0 95 0 0 40 0 40 -95 0 -96 0 3 56 3 57 98 -2 97 -2 0 40 0 41 -155 0 -155 0
0 -240z"/>
<path d="M6150 740 l0 -240 160 0 160 0 0 40 0 39 -106 3 -106 3 2 198 1 197
-56 0 -55 0 0 -240z"/>
<path d="M7200 740 l0 -240 55 0 55 0 0 94 0 93 79 7 c122 11 171 52 171 146
0 62 -17 91 -70 118 -39 19 -60 22 -167 22 l-123 0 0 -240z m233 142 c9 -8 17
-28 17 -43 0 -43 -24 -59 -86 -59 l-54 0 0 58 c0 32 2 61 4 63 10 10 103 -4
119 -19z"/>
<path d="M7700 740 l0 -240 160 0 160 0 0 40 0 40 -105 0 -105 0 0 65 0 64 98
3 97 3 0 35 0 35 -97 3 -98 3 0 54 0 54 103 3 102 3 3 38 3 37 -160 0 -161 0
0 -240z"/>
<path d="M8172 743 l3 -238 52 -3 52 -3 3 103 3 103 30 -3 c17 -2 38 -11 49
-20 21 -19 57 -89 75 -144 l13 -38 64 0 c63 0 63 0 54 24 -21 56 -79 162 -98
179 -21 19 -21 19 19 56 35 34 39 43 39 89 0 40 -5 57 -26 81 -34 41 -77 51
-217 51 l-117 0 2 -237z m230 140 c22 -20 23 -61 1 -85 -12 -13 -30 -18 -70
-18 l-53 0 0 58 c0 32 3 62 8 66 12 12 94 -3 114 -21z"/>
<path d="M480 880 l0 -40 1710 0 1710 0 0 40 0 40 -1710 0 -1710 0 0 -40z"/>
<path d="M1170 600 l0 -40 1365 0 1365 0 0 40 0 40 -1365 0 -1365 0 0 -40z"/>
</g>
</svg>
